<?xml version="1.0" encoding="UTF-8"?>
<svg xmlns="http://www.w3.org/2000/svg" xmlns:xlink="http://www.w3.org/1999/xlink" width="18pt" height="18pt" viewBox="0 0 18 18" version="1.1">
<g id="surface12831392">
<path style=" stroke:none;fill-rule:nonzero;fill:rgb(100%,100%,100%);fill-opacity:1;" d="M 5.140625 0 C 2.308594 0 0 2.273438 0 5.074219 C 0 5.957031 0.246094 6.777344 0.652344 7.503906 C 0.554688 8.019531 0.496094 8.546875 0.496094 9.089844 C 0.496094 13.777344 4.347656 17.574219 9.089844 17.574219 C 9.585938 17.574219 10.066406 17.527344 10.542969 17.449219 C 11.238281 17.800781 12.023438 18 12.859375 18 C 15.691406 18 18 15.726562 18 12.925781 C 18 12.164062 17.8125 11.449219 17.503906 10.800781 C 17.621094 10.246094 17.695312 9.675781 17.695312 9.089844 C 17.695312 4.40625 13.835938 0.609375 9.089844 0.609375 C 8.636719 0.609375 8.1875 0.652344 7.75 0.71875 C 6.984375 0.269531 6.097656 0 5.140625 0 Z M 5.140625 0.71875 C 6.007812 0.71875 6.8125 0.960938 7.492188 1.382812 C 7.566406 1.429688 7.652344 1.453125 7.738281 1.441406 C 8.179688 1.367188 8.628906 1.328125 9.089844 1.328125 C 13.449219 1.328125 16.976562 4.800781 16.976562 9.089844 C 16.976562 9.664062 16.917969 10.21875 16.796875 10.753906 C 16.773438 10.839844 16.78125 10.925781 16.820312 11.003906 C 17.113281 11.582031 17.28125 12.230469 17.28125 12.925781 C 17.28125 15.332031 15.308594 17.28125 12.859375 17.28125 C 12.101562 17.28125 11.386719 17.089844 10.765625 16.761719 C 10.699219 16.726562 10.617188 16.714844 10.542969 16.730469 C 10.070312 16.816406 9.582031 16.851562 9.089844 16.851562 C 4.730469 16.851562 1.214844 13.382812 1.214844 9.089844 C 1.214844 8.554688 1.269531 8.03125 1.371094 7.527344 C 1.390625 7.4375 1.375 7.34375 1.328125 7.265625 C 0.941406 6.621094 0.71875 5.878906 0.71875 5.074219 C 0.71875 2.671875 2.695312 0.71875 5.140625 0.71875 Z M 9.035156 3.015625 C 8.085938 3.015625 7.234375 3.144531 6.503906 3.410156 C 6.5 3.410156 6.492188 3.40625 6.492188 3.410156 C 5.753906 3.679688 5.152344 4.089844 4.734375 4.625 C 4.316406 5.160156 4.09375 5.804688 4.09375 6.492188 C 4.09375 7.203125 4.304688 7.84375 4.714844 8.347656 C 5.105469 8.828125 5.628906 9.207031 6.265625 9.472656 C 6.875 9.726562 7.625 9.941406 8.492188 10.125 C 9.117188 10.253906 9.621094 10.375 9.980469 10.484375 C 10.296875 10.582031 10.542969 10.726562 10.722656 10.890625 C 10.863281 11.023438 10.921875 11.152344 10.921875 11.394531 C 10.921875 11.683594 10.808594 11.871094 10.460938 12.105469 C 10.121094 12.335938 9.644531 12.476562 9.011719 12.476562 C 8.546875 12.476562 8.191406 12.402344 7.964844 12.296875 C 7.710938 12.179688 7.519531 12.035156 7.402344 11.878906 C 7.253906 11.6875 7.113281 11.4375 6.976562 11.125 C 6.828125 10.789062 6.640625 10.5 6.390625 10.292969 C 6.125 10.074219 5.785156 9.96875 5.433594 9.96875 C 5.015625 9.96875 4.625 10.101562 4.332031 10.371094 C 4.042969 10.640625 3.871094 11.015625 3.871094 11.40625 C 3.871094 11.972656 4.082031 12.542969 4.464844 13.082031 C 4.84375 13.625 5.351562 14.058594 5.953125 14.378906 C 6.792969 14.820312 7.839844 15.03125 9.066406 15.03125 C 10.089844 15.03125 11.003906 14.875 11.777344 14.558594 C 12.558594 14.238281 13.183594 13.78125 13.613281 13.183594 C 14.039062 12.589844 14.253906 11.898438 14.253906 11.160156 C 14.253906 10.550781 14.132812 10.007812 13.871094 9.550781 C 13.621094 9.109375 13.265625 8.742188 12.824219 8.460938 C 12.40625 8.191406 11.902344 7.964844 11.328125 7.785156 C 10.777344 7.609375 10.15625 7.445312 9.484375 7.300781 C 9.476562 7.300781 9.476562 7.300781 9.472656 7.300781 C 8.953125 7.183594 8.574219 7.089844 8.359375 7.03125 C 8.160156 6.976562 7.949219 6.902344 7.75 6.804688 C 7.578125 6.71875 7.460938 6.621094 7.378906 6.523438 C 7.320312 6.453125 7.300781 6.402344 7.300781 6.289062 C 7.300781 6.117188 7.367188 5.988281 7.648438 5.804688 C 7.929688 5.625 8.332031 5.523438 8.875 5.523438 C 9.472656 5.523438 9.867188 5.632812 10.035156 5.761719 C 10.269531 5.933594 10.492188 6.199219 10.675781 6.546875 C 10.679688 6.550781 10.683594 6.554688 10.6875 6.558594 C 10.875 6.878906 11.050781 7.113281 11.25 7.289062 C 11.5 7.507812 11.832031 7.59375 12.195312 7.59375 C 12.613281 7.59375 13.007812 7.441406 13.296875 7.144531 C 13.578125 6.859375 13.746094 6.492188 13.746094 6.109375 C 13.746094 5.738281 13.636719 5.363281 13.445312 5.007812 C 13.242188 4.640625 12.9375 4.308594 12.542969 4.003906 C 12.140625 3.695312 11.644531 3.449219 11.070312 3.273438 C 10.484375 3.09375 9.796875 3.015625 9.035156 3.015625 Z M 9.035156 3.734375 C 9.742188 3.734375 10.359375 3.816406 10.855469 3.972656 C 11.367188 4.128906 11.789062 4.335938 12.105469 4.578125 C 12.4375 4.835938 12.671875 5.097656 12.8125 5.355469 C 12.960938 5.625 13.027344 5.875 13.027344 6.109375 C 13.027344 6.304688 12.960938 6.464844 12.792969 6.636719 C 12.632812 6.804688 12.445312 6.875 12.195312 6.875 C 11.949219 6.875 11.804688 6.820312 11.722656 6.75 C 11.617188 6.660156 11.476562 6.476562 11.316406 6.210938 C 11.3125 6.203125 11.308594 6.195312 11.304688 6.1875 C 11.082031 5.777344 10.804688 5.433594 10.472656 5.1875 C 10.089844 4.898438 9.550781 4.804688 8.875 4.804688 C 8.238281 4.804688 7.691406 4.925781 7.257812 5.207031 C 6.851562 5.46875 6.582031 5.851562 6.582031 6.289062 C 6.582031 6.542969 6.667969 6.792969 6.828125 6.984375 C 6.984375 7.171875 7.191406 7.328125 7.4375 7.449219 C 7.671875 7.5625 7.921875 7.660156 8.167969 7.730469 C 8.40625 7.792969 8.796875 7.890625 9.328125 8.011719 C 9.984375 8.148438 10.585938 8.304688 11.113281 8.472656 C 11.640625 8.636719 12.089844 8.839844 12.441406 9.066406 C 12.792969 9.292969 13.058594 9.574219 13.253906 9.910156 C 13.4375 10.234375 13.535156 10.648438 13.535156 11.160156 C 13.535156 11.761719 13.367188 12.292969 13.027344 12.769531 C 12.691406 13.238281 12.1875 13.617188 11.507812 13.894531 C 10.839844 14.167969 10.015625 14.308594 9.066406 14.308594 C 7.925781 14.308594 6.996094 14.117188 6.289062 13.746094 C 5.78125 13.476562 5.375 13.113281 5.0625 12.667969 C 5.058594 12.667969 5.054688 12.667969 5.050781 12.667969 C 4.730469 12.214844 4.589844 11.796875 4.589844 11.40625 C 4.589844 11.203125 4.660156 11.054688 4.828125 10.902344 C 4.984375 10.753906 5.164062 10.6875 5.433594 10.6875 C 5.644531 10.6875 5.796875 10.734375 5.929688 10.84375 C 6.0625 10.953125 6.199219 11.140625 6.3125 11.40625 C 6.316406 11.410156 6.316406 11.414062 6.324219 11.417969 C 6.476562 11.769531 6.648438 12.070312 6.839844 12.320312 C 7.042969 12.582031 7.320312 12.792969 7.660156 12.949219 C 8.03125 13.121094 8.480469 13.195312 9.011719 13.195312 C 9.742188 13.195312 10.371094 13.046875 10.867188 12.710938 C 11.34375 12.390625 11.644531 11.921875 11.644531 11.394531 C 11.644531 10.996094 11.488281 10.621094 11.203125 10.359375 C 10.933594 10.109375 10.59375 9.921875 10.191406 9.796875 C 9.800781 9.679688 9.277344 9.558594 8.640625 9.425781 C 7.800781 9.25 7.097656 9.039062 6.546875 8.808594 C 6 8.578125 5.582031 8.265625 5.277344 7.886719 C 4.976562 7.515625 4.816406 7.070312 4.816406 6.492188 C 4.816406 5.949219 4.972656 5.480469 5.296875 5.0625 C 5.304688 5.0625 5.304688 5.0625 5.308594 5.0625 C 5.628906 4.652344 6.09375 4.320312 6.738281 4.082031 C 7.371094 3.851562 8.144531 3.734375 9.035156 3.734375 Z M 9.035156 3.734375 "/>
</g>
</svg>
